<svg xmlns="http://www.w3.org/2000/svg" viewBox="0 0 1024 1024">
  <title>Hive tile concept 2 — Honeycomb Team</title>
  <defs><linearGradient id="bg" x1="0" y1="0" x2="1" y2="1"><stop stop-color="#fffdf9"/><stop offset="1" stop-color="#ffe0d1"/></linearGradient><filter id="s"><feDropShadow dx="0" dy="20" stdDeviation="24" flood-color="#172033" flood-opacity=".2"/></filter><symbol id="brick" viewBox="0 0 27 24"><path d="M9.326 13.31h7.987a1.33 1.33 0 0 0 0-2.663H9.326a1.331 1.331 0 1 0 0 2.662Z"/><path d="M2.662 6.922v11.447a1.331 1.331 0 0 0 1.331 1.331h1.331v2.929a1.331 1.331 0 0 0 2.663 0v-5.591H5.324V6.922h10.649v-5.59a1.331 1.331 0 0 0-2.662 0v2.927H1.331a1.331 1.331 0 0 0 0 2.663h1.331Zm18.636 0v10.116H10.649v5.59a1.331 1.331 0 0 0 2.662 0V19.7h11.98a1.331 1.331 0 0 0 0-2.662H23.96V5.59a1.331 1.331 0 0 0-1.331-1.331h-1.331V1.33a1.331 1.331 0 0 0-2.662 0v5.591h2.662Z"/></symbol></defs>
  <rect x="64" y="64" width="896" height="896" rx="220" fill="url(#bg)" stroke="#172033" stroke-width="18"/>
  <g stroke="#172033" stroke-width="22" stroke-linejoin="round" filter="url(#s)">
    <path d="m512 155 166 96v192l-166 96-166-96V251z" fill="#ff6f52"/><path d="m302 382 166 96v192l-166 96-166-96V478z" fill="#ffbd4a"/><path d="m722 382 166 96v192l-166 96-166-96V478z" fill="#ff8a68"/><path d="m512 610 166 96v192l-166 96-166-96V706z" fill="#172033"/>
  </g>
  <g fill="#fff8f2"><circle cx="512" cy="305" r="42"/><path d="M434 421c18-61 138-61 156 0z"/><circle cx="302" cy="535" r="42"/><path d="M224 651c18-61 138-61 156 0z"/><circle cx="722" cy="535" r="42"/><path d="M644 651c18-61 138-61 156 0z"/></g>
  <use href="#brick" x="425" y="718" width="174" height="155" fill="#fff8f2"/>
</svg>
