<svg xmlns="http://www.w3.org/2000/svg" viewBox="0 0 1024 1024">
  <title>Hive — Brick</title>
  <defs>
    <linearGradient id="coral" x1="154" y1="116" x2="848" y2="910" gradientUnits="userSpaceOnUse">
      <stop stop-color="#ff8a68"/>
      <stop offset="0.52" stop-color="#ff6f52"/>
      <stop offset="1" stop-color="#e94f32"/>
    </linearGradient>
    <linearGradient id="cell" x1="336" y1="240" x2="680" y2="754" gradientUnits="userSpaceOnUse">
      <stop stop-color="#fffdfa"/>
      <stop offset="1" stop-color="#fff1e7"/>
    </linearGradient>
    <filter id="shadow" x="-30%" y="-30%" width="160%" height="170%">
      <feDropShadow dx="0" dy="28" stdDeviation="30" flood-color="#7d251b" flood-opacity="0.3"/>
    </filter>
  </defs>

  <rect x="64" y="64" width="896" height="896" rx="218" fill="url(#coral)"/>
  <rect x="77" y="77" width="870" height="870" rx="205" fill="none" stroke="#172033" stroke-opacity="0.2" stroke-width="18"/>
  <path d="M176 256c88-124 215-169 346-169" fill="none" stroke="#fff" stroke-opacity="0.24" stroke-linecap="round" stroke-width="24"/>

  <g filter="url(#shadow)">
    <path d="M512 172 752 310v277L512 726 272 587V310z" fill="url(#cell)" stroke="#172033" stroke-width="30" stroke-linejoin="round"/>
  </g>

  <path d="m786 212 94 54v109l-94 54-94-54V266z" fill="#ffba45" stroke="#172033" stroke-width="24" stroke-linejoin="round"/>
  <path d="m800 634 106 61v122l-106 61-106-61V695z" fill="#ff8a5b" stroke="#172033" stroke-width="24" stroke-linejoin="round"/>

  <g transform="translate(352 348) scale(12)" fill="#ff6f52">
    <path fill-rule="evenodd" d="M9.326 13.31h7.987a1.33 1.33 0 0 0 0-2.663H9.326a1.331 1.331 0 1 0 0 2.662Z"/>
    <path fill-rule="evenodd" d="M2.662 6.922v11.447a1.331 1.331 0 0 0 1.331 1.331h1.331v2.929a1.331 1.331 0 0 0 2.663 0v-5.591H5.324V6.922h10.649v-5.59a1.331 1.331 0 0 0-2.662 0v2.927H1.331a1.331 1.331 0 0 0 0 2.663h1.331Zm18.636 0v10.116H10.649v5.59a1.331 1.331 0 0 0 2.662 0V19.7h11.98a1.331 1.331 0 0 0 0-2.662H23.96V5.59a1.331 1.331 0 0 0-1.331-1.331h-1.331V1.33a1.331 1.331 0 0 0-2.662 0v5.591h2.662Z"/>
  </g>
</svg>
