<svg
  width="172"
  height="40"
  viewBox="0 0 172 40"
  fill="none"
  xmlns="http://www.w3.org/2000/svg"
>
  <title>Hive</title>
  <g aria-hidden="true">
    <path
      d="M40 2.5L47 6.5V14.5L40 18.5L33 14.5V6.5L40 2.5Z"
      fill="#FFB53D"
      stroke="#172033"
      stroke-width="1.5"
      stroke-linejoin="round"
    />
    <path
      d="M42 21.5L49 25.5V33.5L42 37.5L35 33.5V25.5L42 21.5Z"
      fill="#FF8A5B"
      stroke="#172033"
      stroke-width="1.5"
      stroke-linejoin="round"
    />
    <path
      d="M20 1.5L36 10.75V29.25L20 38.5L4 29.25V10.75L20 1.5Z"
      fill="#FFF8F2"
      stroke="#172033"
      stroke-width="2"
      stroke-linejoin="round"
    />
    <g transform="translate(8.55 8.4) scale(0.86)" fill="#FF6F52">
      <path
        fill-rule="evenodd"
        clip-rule="evenodd"
        d="M9.32609 13.3095H17.3128C18.0416 13.3095 18.6407 12.7105 18.6407 11.9783C18.6407 11.2462 18.0416 10.6472 17.3128 10.6472H9.32609C8.58732 10.6472 7.98828 11.2462 7.98828 11.9783C7.98828 12.7105 8.58732 13.3095 9.32609 13.3095Z"
      />
      <path
        fill-rule="evenodd"
        clip-rule="evenodd"
        d="M2.66224 6.92181V18.3694C2.66224 19.1041 3.25871 19.7006 3.99336 19.7006H5.32447V22.629C5.32447 23.3637 5.92095 23.9601 6.65559 23.9601C7.39024 23.9601 7.98671 23.3637 7.98671 22.629V17.0383H5.32447V6.92181H15.9734V1.33112C15.9734 0.596474 15.3769 0 14.6423 0C13.9077 0 13.3112 0.596474 13.3112 1.33112V4.25958H1.33112C0.596474 4.25958 0 4.85605 0 5.5907C0 6.32534 0.596474 6.92181 1.33112 6.92181H2.66224ZM21.2979 6.92181V17.0383H10.6489V22.629C10.6489 23.3637 11.2454 23.9601 11.9801 23.9601C12.7147 23.9601 13.3112 23.3637 13.3112 22.629V19.7006H25.2912C26.0259 19.7006 26.6224 19.1041 26.6224 18.3694C26.6224 17.6348 26.0259 17.0383 25.2912 17.0383H23.9601V5.5907C23.9601 4.85605 23.3637 4.25958 22.629 4.25958H21.2979V1.33112C21.2979 0.596474 20.7014 0 19.9668 0C19.2321 0 18.6357 0.596474 18.6357 1.33112V6.92181H21.2979Z"
      />
    </g>
  </g>
  <text
    x="57"
    y="31.5"
    fill="#15181D"
    font-family="Inter, system-ui, -apple-system, BlinkMacSystemFont, 'Segoe UI', sans-serif"
    font-size="31"
    font-weight="700"
    letter-spacing="-1.55"
  >Hive</text>
</svg>
